<?xml version="1.0" encoding="utf-8"?>
<!-- Generator: Adobe Illustrator 23.0.3, SVG Export Plug-In . SVG Version: 6.00 Build 0)  -->
<svg version="1.1" id="Ebene_1" xmlns="http://www.w3.org/2000/svg" xmlns:xlink="http://www.w3.org/1999/xlink" x="0px" y="0px"
	 viewBox="0 0 440.5 441.1" style="enable-background:new 0 0 440.5 441.1;" xml:space="preserve">
<style type="text/css">
	.st0{fill:#120017;stroke:#000000;stroke-miterlimit:10;}
</style>
<title>roundmonkey</title>
<path class="st0" d="M220.9,20.9l8,0.4l6.8-0.6l7.8-1.8l5.6-1.6l6.5-4l5.2-6.2c3.2-2.6,5.4-3.9,7.6-4.1l4.5-0.4l4.5-0.4
	c2.4,0.4,4.7,0.9,7,1.7l4.7,1.9l4.7,1.9c0,0,3.5,0.8,3.7,3.1c-0.4,1.5-0.7,3.1-0.7,4.6c-0.6,0.7-0.5,1.6,0.1,2.2c0,0,0,0,0.1,0
	c1.5,1.1,3.2,2.1,4.8,3l3.7,3.1c0.2,1.9-0.1,3.9-0.6,5.8l-0.9,2.4c0,0,0.1,1.1-2.2,1.3c-2.3,0-4.6-0.2-6.9-0.5l4.8,3l6,2.9l6,4l6,4
	l6,4l6.1,4l4.8,3l1.2,1c1.1,0.5,2.3,0.8,3.5,0.8l3.6,2l3.7,3.1l5,5.3l5,5.3l3.8,4.2l3.8,4.2l5.1,6.4l4,6.5l5.1,6.4l2.7,4.3
	c0,0,3.9,5.4,1.6,5.6c-2.4-0.9-2.4-0.9-3.6-2c-1-1-1.8-2-2.6-3.2l-5-5.3l-3.8-4.2l-2.5-2.1l-2.5-2.1c-0.8-1.2-2.1-2-3.6-2l-2.3,0.2
	c-0.9,0-1.7-0.3-2.4-0.9c-1.1-0.8-2.3-1.5-3.6-2l-8.3-3.8l-7.1-2.8l-6-2.9l-7.2-3.9l-4.7-1.9c0,0-2.5-2.1-2.6-3.2s-0.2-2.3-1.3-2.2
	l-3.5-0.8l-22.1-4.9c0,0-3.4,0.3-7.1-2.8l-6.1-5.2l-1.1,0.1l-4.3,2.7L250,66.3l-13.3,4.6c0,0-7.8,1.8-11.2,2.1s-17.1,0.4-17.1,0.4
	s-0.3,9.2-2.4,11.6l-5.2,6.2l-9.5,8.8l-9.6,7.7l-6.4,5.1l-2.1,2.5l-0.9,2.4l0.2,2.3c0,0,3.9,5.4,5,5.3s2.5,2.1,2.5,2.1l2.8,5.5
	l1.4,3.3c0,0,2.8,5.5,1.8,7.8s-1.8,5.9-3,4.8c-1.9-1.5-3.6-3.3-5-5.3c-1.3-2.2-6.7-11.9-6.7-11.9l-3.8-4.2l-5-5.3l-2.6-3.2l-2.7-4.3
	l-1.4-3.3c0,0-0.1-1.1,2.1-2.5c2.7-1.9,5.2-4,7.4-6.3c1-1.2,5.1-7.3,5.1-7.3l3-4.8l2.9-6l-0.4-4.5l-3.1-8.8l-2.8-5.4l-2.6-4.3
	c0,0-8.2-2.7-8.7-8.3l-0.5-5.7l-0.2-2.3c0,0-0.2-2.3-3.6-2s-29.1,6-47,22.3c-7.4,6.3-17.9,16.4-17.9,16.4L72,103.5
	c0,0-11.8,21.5-12.5,26.2c-0.7,1.9-1.3,3.9-1.8,5.9c0,0-5.3,5-6.4,5.1l-2.3,0.2c0,0-3.3,1.4-1.5-4.4c1-3.2,2.2-6.4,3.7-9.4l6.8-13.1
	l12.1-18.1c0,0,15.3-20.7,21.7-25.8c5.3-5,11.7-10.1,11.7-10.1s18.1-14.1,22.6-15.7c5.4-2.8,17.4-9.5,17.4-9.5
	c6-3,12.3-5.5,18.7-7.3c11.1-3.3,22.3-5.4,22.3-5.4l10.2-0.9l12.4-1.1L220.9,20.9z"/>
<path class="st0" d="M417.8,328.8l-4,7l-2.5,6.3l-1.8,7.8l-1,5.7l0.7,7.6l3.2,7.4c0.9,4,1.1,6.5,0.3,8.6l-1.7,4.2l-1.6,4.2
	c-1.4,2-2.9,3.8-4.6,5.5l-3.8,3.4l-3.8,3.4c0,0-2.3,2.8-4.4,1.9c-1.1-1.1-2.4-2-3.8-2.7c-0.3-0.8-1.2-1.2-2.1-0.9c0,0,0,0-0.1,0
	c-1.7,0.9-3.3,1.9-4.8,3l-4.4,1.9c-1.8-0.7-3.5-1.8-4.9-3.1l-1.7-1.9c0,0-1.1-0.4-0.2-2.5c1-2.1,2.2-4.1,3.5-5.9l-4.8,3l-5.2,4
	l-6.3,3.6l-6.3,3.6l-6.3,3.6l-6.3,3.6l-4.8,3l-1.5,0.6c-0.9,0.8-1.7,1.7-2.3,2.8l-3.4,2.3l-4.4,1.9l-6.9,2.2l-6.9,2.2l-5.5,1.5
	l-5.5,1.5l-8,1.7l-7.6,0.7l-8,1.8l-5.1,0.5c0,0-6.5,1.1-5.7-1c1.9-1.7,1.9-1.7,3.4-2.4c1.3-0.5,2.6-0.7,4-0.9l6.9-2.2l5.5-1.5
	l2.9-1.3l2.9-1.3c1.5-0.1,2.7-1,3.4-2.4l0.8-2.1c0.4-0.8,1.1-1.4,1.9-1.7c1.2-0.6,2.3-1.4,3.4-2.4l7.1-5.8l5.6-5.1l5.3-4l6.7-4.7
	l3.8-3.4c0,0,2.9-1.3,4-0.9s2.1,0.8,2.5-0.2l2.3-2.8l14.2-17.6c0,0,1.2-3.2,5.6-5.1l7.4-3.2l0.4-1.1l-0.5-5l1.1-21.5l1.8-13.9
	c0,0,1.8-7.8,3.1-11s7.3-15.5,7.3-15.5s-8-4.4-9.3-7.3l-3.2-7.4l-3.7-12.4l-2.6-12l-1.7-8l-1.3-2.9l-1.7-1.9l-2.1-0.8
	c0,0-6.5,1.1-7,2.2s-2.9,1.3-2.9,1.3h-6.1l-3.6-0.2c0,0-6.1,0-7.8-1.8s-4.5-4.2-3-4.8c2.2-1.1,4.5-1.8,6.9-2.2
	c2.5-0.2,13.7-0.7,13.7-0.7l5.5-1.5l6.9-2.2l4-0.9l5.1-0.5l3.6,0.2c0,0,1.1,0.4,1.3,2.9c0.5,3.2,1.3,6.4,2.4,9.5
	c0.6,1.5,4.3,7.8,4.3,7.8l3,4.8l4,5.3l4.2,1.6l9.3,1.2l6.1,0l5-0.5c0,0,6.1-6.2,11.4-4.1l5.3,2.1l2.1,0.8c0,0,2.1,0.8,3.4-2.3
	s7.6-28.7,0.9-52.1c-2.4-9.5-6.7-23.4-6.7-23.4L410,158.7c0,0-14.1-20.1-17.9-22.8c-1.4-1.5-2.9-2.9-4.5-4.2c0,0-2.2-6.9-1.8-8
	l0.8-2.1c0,0,0.2-3.6,4.6,0.6c2.5,2.3,4.7,4.8,6.8,7.5l8.7,11.9l10.9,18.9c0,0,11.8,22.9,13.5,30.9c2.2,7,3.9,14.9,3.9,14.9
	s4.6,22.5,4,27.2c0,6.1,0.8,19.8,0.8,19.8c0,6.7-0.5,13.4-1.8,20.1c-2,11.4-5.1,22.4-5.1,22.4l-3.8,9.5l-4.5,11.6L417.8,328.8z"/>
<path class="st0" d="M49.5,345.3l-3.7-7.1l-4-5.5l-5.6-5.8l-4.2-4l-6.7-3.5l-7.9-1.3c-3.8-1.4-6.1-2.6-7.4-4.5l-2.7-3.7l-2.6-3.7
	c-0.9-2.2-1.6-4.5-2.1-6.9l-0.8-5l-0.8-5c0,0-1.1-3.4,0.8-4.8c1.5-0.4,3-1,4.3-1.7c0.9,0.2,1.7-0.4,1.8-1.3c0,0,0,0,0-0.1
	c0.2-1.9,0.2-3.8,0.1-5.7l0.8-4.8c1.6-1.1,3.4-1.9,5.3-2.4l2.5-0.4c0,0,0.9-0.7,2.3,1.2c1.2,2,2.2,4,3.1,6.2l0.1-5.7l-0.6-6.6
	l0.4-7.3l0.4-7.3l0.4-7.3l0.4-7.3l0.1-5.7l0.3-1.6c-0.1-1.2-0.5-2.4-1.1-3.5l-0.2-4.1l0.8-4.8l2-7l2-7l1.7-5.4L30,190l2.9-7.7
	l3.5-6.8l2.9-7.7l2.4-4.5c0,0,2.6-6.1,3.9-4.2c0.4,2.5,0.4,2.5,0.2,4.1c-0.3,1.3-0.8,2.6-1.4,3.8l-2,7l-1.7,5.4l-0.5,3.2l-0.5,3.2
	c-0.7,1.3-0.6,2.8,0.2,4.1l1.3,1.9c0.4,0.8,0.6,1.6,0.4,2.5c-0.1,1.4-0.1,2.7,0.2,4.1l1,9.1l1.2,7.5l0.6,6.6l0.3,8.2l0.8,5
	c0,0-0.5,3.2-1.4,3.8s-1.8,1.3-1.2,2.3l1.1,3.4l7.1,21.5c1.3,2.3,1.8,4.9,1.2,7.5l-1.3,7.9l0.7,0.9l4.5,2.4l17.5,12.6l10.7,9.1
	c0,0,5.6,5.8,7.6,8.5s9,14.5,9,14.5s8-4.4,11.2-3.9l7.9,1.3l12.4,3.6l11.5,4.3l7.7,2.9l3.2,0.5l2.5-0.4l1.8-1.3c0,0,2.6-6.1,2-7
	s0.5-3.2,0.5-3.2l3.3-5.2l2.1-2.9c0,0,3.3-5.2,5.8-5.6s5.9-1.5,5.7,0.1c-0.3,2.4-1,4.8-1.9,7c-1.2,2.3-6.8,11.9-6.8,11.9l-1.7,5.4
	l-2,7l-1.4,3.8l-2.3,4.6l-2.1,2.9c0,0-0.9,0.7-3.2-0.5c-3-1.4-6.1-2.4-9.3-3.1c-1.6-0.3-8.9-0.6-8.9-0.6l-5.7-0.1l-6.6,0.6l-3.7,2.6
	l-6.1,7.1l-3.3,5.1l-2.4,4.5c0,0,1.9,8.4-2.7,11.8l-4.6,3.3l-1.8,1.3c0,0-1.8,1.3,0.1,4.1s20,22,43.3,29c9.3,3.1,23.3,7,23.3,7
	l27.9,3.7c0,0,24.5-0.9,28.9-2.6c2-0.4,4-0.9,5.9-1.5c0,0,7,2,7.7,2.9l1.3,1.8c0,0,2.9,2.1-3,3.6c-3.3,0.8-6.6,1.4-10,1.6l-14.8,0.9
	l-21.8-1.1c0,0-25.6-2.5-33.3-5.4c-7-2-14.7-4.8-14.7-4.8s-21.4-8.4-25-11.4c-5.2-3.3-17.1-10.1-17.1-10.1
	c-5.7-3.6-11-7.7-15.9-12.3c-8.5-7.9-16-16.4-16-16.4l-6-8.3l-7.3-10.1L49.5,345.3z"/>
</svg>
